<?xml version="1.0" encoding="UTF-8"?>
<svg id="svg4259" xmlns="http://www.w3.org/2000/svg" xmlns:svg="http://www.w3.org/2000/svg" xmlns:rdf="http://www.w3.org/1999/02/22-rdf-syntax-ns#" xmlns:dc="http://purl.org/dc/elements/1.1/" xmlns:cc="http://creativecommons.org/ns#" version="1.1" viewBox="0 0 234 229.4">
  <!-- Generator: Adobe Illustrator 29.8.6, SVG Export Plug-In . SVG Version: 2.1.1 Build 1)  -->
  <defs>
    <style>
      .st0 {
        fill: #de0039;
      }
    </style>
  </defs>
  <path id="refine_final" class="st0" d="M92.6,49l46.9,31.5c9.7,6.5,19.7,12.9,36.8,12.9,26.7,0,50.5-19.4,50.5-19.4L116.6,0s-12,13.2-49.8,36.7C27.2,61.4,6.4,68.6,6.4,68.6l142.2,95.6-9.4,6.1-45.6-30.6c-9.7-6.5-19.7-12.9-36.8-12.9-26.7,0-50.4,19.5-50.4,19.5l110.2,74s12-13.2,49.8-36.7c39.6-24.7,60.4-31.9,60.4-31.9L83.3,55.1l9.3-6.1Z"/>
</svg>